<?xml version="1.0" encoding="UTF-8" ?>
<!DOCTYPE svg PUBLIC "-//W3C//DTD SVG 1.1//EN" "http://www.w3.org/Graphics/SVG/1.1/DTD/svg11.dtd">
<svg width="717pt" height="610pt" viewBox="0 0 717 610" version="1.1" xmlns="http://www.w3.org/2000/svg">
<path fill="#000000" opacity="1.00" d=" M 421.05 33.08 C 439.44 8.88 475.69 0.31 502.80 14.22 C 533.89 26.90 564.50 40.68 595.56 53.44 C 608.74 60.12 623.87 63.66 634.68 74.32 C 651.22 89.87 659.26 113.79 655.39 136.20 C 650.05 157.43 637.43 176.48 632.19 197.52 C 645.37 204.54 659.55 210.26 671.29 219.66 C 681.80 235.43 668.36 258.13 650.14 259.36 C 658.23 285.53 662.67 312.43 663.34 339.80 C 683.52 339.70 707.44 349.09 712.56 370.79 C 716.16 391.95 696.24 405.44 679.97 413.92 C 693.15 425.13 703.84 448.20 687.69 461.76 C 662.21 480.86 628.02 471.42 598.76 470.57 C 528.43 521.10 437.03 529.22 353.17 523.90 C 295.24 517.84 235.53 502.14 190.19 463.80 C 157.10 437.15 137.37 395.95 133.81 353.95 C 116.34 368.49 99.70 383.99 82.10 398.36 C 69.56 385.77 58.60 371.73 46.55 358.68 C 66.98 343.07 89.48 330.38 110.22 315.18 C 77.17 320.48 44.18 326.23 11.03 330.83 C 11.58 312.15 7.84 293.75 6.80 275.16 C 39.06 276.48 71.30 277.38 103.48 279.69 C 74.25 265.34 44.68 251.53 15.11 237.85 C 21.46 221.51 27.10 204.84 34.23 188.80 C 72.08 215.28 109.75 242.11 147.22 269.15 C 152.64 257.24 161.62 246.31 164.56 233.69 C 140.47 211.49 135.67 169.71 163.88 148.70 C 149.56 112.39 153.06 65.63 184.99 39.71 C 201.09 80.95 234.42 111.66 266.92 140.18 C 270.08 142.79 271.77 138.48 270.21 135.93 C 259.42 102.85 267.40 62.32 294.99 39.71 C 303.55 58.08 313.07 79.20 328.77 91.73 C 347.29 74.34 371.60 86.98 391.83 94.11 C 402.81 74.34 407.27 51.31 421.05 33.08 M 433.96 52.93 C 428.94 60.41 426.45 69.68 422.68 77.96 C 419.01 85.67 415.67 93.56 412.93 101.65 C 480.41 127.24 546.34 156.83 611.85 186.94 C 615.72 179.24 618.11 170.85 622.11 163.19 C 625.28 154.49 630.61 146.20 632.46 137.26 C 640.64 115.80 627.20 90.03 606.46 81.54 C 568.21 65.62 530.24 49.06 492.06 33.01 C 471.62 22.67 444.22 32.87 433.96 52.93 M 180.40 78.67 C 173.45 95.76 176.78 115.70 182.21 132.81 C 200.95 180.03 239.58 215.67 279.15 245.91 C 235.36 235.24 197.16 206.22 171.10 169.84 C 156.16 185.22 164.39 208.73 178.81 221.19 C 215.65 255.70 263.29 274.95 309.40 293.65 C 265.70 291.13 220.75 280.40 184.96 254.10 C 184.32 269.48 186.23 285.85 195.17 298.84 C 222.21 338.64 276.59 343.11 320.38 345.30 C 288.67 349.10 255.61 348.16 224.55 340.43 C 195.94 333.44 171.57 309.21 167.46 279.62 C 151.44 310.66 151.42 348.86 160.97 381.99 C 170.58 419.50 199.65 449.66 232.99 468.02 C 294.09 501.08 365.99 507.55 434.22 503.27 C 480.78 498.38 528.61 489.27 569.18 464.72 C 558.63 462.76 548.28 458.25 537.51 458.19 C 521.25 454.39 504.96 450.19 488.39 448.14 C 481.72 454.82 474.43 461.30 465.59 464.89 C 456.95 467.91 452.08 454.43 459.37 450.36 C 469.77 444.11 480.45 436.12 483.90 423.84 C 491.07 401.26 477.31 376.82 458.97 364.00 C 454.88 360.90 455.17 352.78 459.61 350.20 C 472.34 348.06 480.27 361.26 487.53 369.40 C 491.16 372.96 492.18 382.74 499.16 379.11 C 546.63 366.93 593.73 352.74 641.95 343.86 C 642.18 333.57 641.63 323.30 640.85 313.05 C 639.39 313.04 636.48 313.02 635.02 313.01 C 635.00 321.66 634.99 330.32 634.99 338.99 C 626.66 339.00 618.32 339.00 610.00 339.01 C 610.01 330.34 610.01 321.67 610.00 313.00 C 600.66 312.98 591.32 312.98 581.99 313.02 C 577.00 313.01 571.98 312.97 567.01 312.97 C 566.98 304.64 566.98 296.33 567.00 288.01 C 589.97 287.97 612.94 287.97 635.91 288.09 C 632.97 275.74 629.60 263.25 624.13 251.79 C 543.84 222.49 465.46 188.13 388.06 151.89 C 380.39 148.52 373.29 143.13 365.20 141.05 C 362.10 138.56 358.58 136.13 354.45 136.03 C 354.35 133.47 346.86 130.67 343.81 132.81 C 323.35 138.43 303.51 146.32 284.97 156.65 C 292.07 161.55 298.13 167.75 304.16 173.88 L 304.84 173.60 C 350.51 214.31 396.63 267.97 393.53 333.17 C 388.56 288.53 359.55 251.04 328.23 220.77 C 293.64 188.02 254.50 160.67 218.88 129.12 C 203.44 114.64 188.17 98.75 180.40 78.67 M 290.28 78.78 C 283.65 94.99 287.07 113.46 291.02 129.98 C 299.93 125.71 309.09 122.04 318.19 118.21 C 306.16 107.35 296.84 93.56 290.28 78.78 M 646.97 356.99 C 597.46 366.75 548.99 381.03 500.08 393.24 C 501.15 398.67 501.82 404.17 502.30 409.68 C 557.72 414.49 615.99 420.27 669.73 402.71 C 682.66 396.98 701.51 388.01 698.12 371.21 C 688.53 353.16 664.52 351.12 646.97 356.99 M 501.07 424.09 C 499.77 427.53 498.66 431.04 497.98 434.66 C 532.70 443.41 567.94 449.75 603.18 455.92 C 627.15 457.44 653.59 464.80 675.87 452.83 C 690.00 443.13 674.39 425.69 664.01 420.31 C 610.53 432.78 555.29 427.44 501.07 424.09 Z" />
<path fill="#c3996b" opacity="1.00" d=" M 433.96 52.93 C 444.22 32.87 471.62 22.67 492.06 33.01 C 530.24 49.06 568.21 65.62 606.46 81.54 C 627.20 90.03 640.64 115.80 632.46 137.26 C 629.57 130.33 625.98 123.72 622.17 117.26 C 628.64 109.02 619.42 100.50 612.57 96.35 C 600.79 89.81 586.26 83.73 572.74 88.54 C 543.26 75.34 513.30 63.18 483.62 50.41 C 467.58 43.55 449.38 45.53 433.96 52.93 Z" />
<path fill="#a87c4f" opacity="1.00" d=" M 433.96 52.93 C 449.38 45.53 467.58 43.55 483.62 50.41 C 513.30 63.18 543.26 75.34 572.74 88.54 C 570.46 93.30 571.38 99.00 575.66 102.33 C 588.06 113.62 605.25 120.42 622.17 117.26 C 625.98 123.72 629.57 130.33 632.46 137.26 C 630.61 146.20 625.28 154.49 622.11 163.19 C 555.61 134.84 488.84 107.07 422.68 77.96 C 426.45 69.68 428.94 60.41 433.96 52.93 Z" />
<path fill="#8a5d3b" opacity="1.00" d=" M 412.93 101.65 C 415.67 93.56 419.01 85.67 422.68 77.96 C 488.84 107.07 555.61 134.84 622.11 163.19 C 618.11 170.85 615.72 179.24 611.85 186.94 C 546.34 156.83 480.41 127.24 412.93 101.65 Z" />
<path fill="#5bc9e1" opacity="1.00" d=" M 180.40 78.67 C 188.17 98.75 203.44 114.64 218.88 129.12 C 254.50 160.67 293.64 188.02 328.23 220.77 C 359.55 251.04 388.56 288.53 393.53 333.17 C 396.63 267.97 350.51 214.31 304.84 173.60 C 331.50 162.77 359.60 155.89 388.06 151.89 C 465.46 188.13 543.84 222.49 624.13 251.79 C 629.60 263.25 632.97 275.74 635.91 288.09 C 612.94 287.97 589.97 287.97 567.00 288.01 C 566.98 296.33 566.98 304.64 567.01 312.97 C 571.98 312.97 577.00 313.01 581.99 313.02 C 581.99 321.67 582.00 330.33 582.01 338.99 C 591.33 338.99 600.66 339.00 610.00 339.01 C 618.32 339.00 626.66 339.00 634.99 338.99 C 634.99 330.32 635.00 321.66 635.02 313.01 C 636.48 313.02 639.39 313.04 640.85 313.05 C 641.63 323.30 642.18 333.57 641.95 343.86 C 593.73 352.74 546.63 366.93 499.16 379.11 C 492.18 382.74 491.16 372.96 487.53 369.40 C 480.27 361.26 472.34 348.06 459.61 350.20 C 455.17 352.78 454.88 360.90 458.97 364.00 C 477.31 376.82 491.07 401.26 483.90 423.84 C 480.45 436.12 469.77 444.11 459.37 450.36 C 452.08 454.43 456.95 467.91 465.59 464.89 C 474.43 461.30 481.72 454.82 488.39 448.14 C 504.96 450.19 521.25 454.39 537.51 458.19 C 515.26 467.14 491.55 473.85 467.43 473.83 C 441.63 467.79 420.70 449.04 395.04 442.58 C 376.01 437.04 361.95 455.47 343.34 453.78 C 326.87 451.68 313.76 439.99 298.06 435.69 C 287.98 432.05 280.06 440.75 270.39 440.46 C 251.47 437.00 245.84 406.71 223.73 412.59 C 198.41 422.81 179.09 395.55 160.97 381.99 C 151.42 348.86 151.44 310.66 167.46 279.62 C 171.57 309.21 195.94 333.44 224.55 340.43 C 255.61 348.16 288.67 349.10 320.38 345.30 C 276.59 343.11 222.21 338.64 195.17 298.84 C 186.23 285.85 184.32 269.48 184.96 254.10 C 220.75 280.40 265.70 291.13 309.40 293.65 C 263.29 274.95 215.65 255.70 178.81 221.19 C 164.39 208.73 156.16 185.22 171.10 169.84 C 197.16 206.22 235.36 235.24 279.15 245.91 C 239.58 215.67 200.95 180.03 182.21 132.81 C 176.78 115.70 173.45 95.76 180.40 78.67 M 455.00 291.01 C 454.98 299.34 454.98 307.66 455.01 316.00 C 456.76 316.00 460.26 316.00 462.01 316.00 C 461.98 324.66 461.98 333.32 462.00 341.99 C 474.00 342.03 486.00 342.02 498.01 341.99 C 506.33 342.03 514.65 342.01 522.99 341.99 C 522.99 333.00 523.00 324.02 523.01 315.04 C 525.66 315.01 528.32 314.99 531.00 314.97 C 531.01 306.98 531.00 299.00 531.00 291.02 C 505.66 290.97 480.33 290.99 455.00 291.01 Z" />
<path fill="#5bc9e1" opacity="1.00" d=" M 290.28 78.78 C 296.84 93.56 306.16 107.35 318.19 118.21 C 309.09 122.04 299.93 125.71 291.02 129.98 C 287.07 113.46 283.65 94.99 290.28 78.78 Z" />
<path fill="#ffffff" opacity="1.00" d=" M 572.74 88.54 C 586.26 83.73 600.79 89.81 612.57 96.35 C 619.42 100.50 628.64 109.02 622.17 117.26 C 605.25 120.42 588.06 113.62 575.66 102.33 C 571.38 99.00 570.46 93.30 572.74 88.54 Z" />
<path fill="#d0ecf4" opacity="1.00" d=" M 343.81 132.81 C 346.86 130.67 354.35 133.47 354.45 136.03 C 336.00 140.83 316.87 144.97 299.93 153.97 C 321.58 149.18 343.26 144.44 365.20 141.05 C 373.29 143.13 380.39 148.52 388.06 151.89 C 359.60 155.89 331.50 162.77 304.84 173.60 L 304.16 173.88 C 298.13 167.75 292.07 161.55 284.97 156.65 C 303.51 146.32 323.35 138.43 343.81 132.81 Z" />
<path fill="#feffff" opacity="1.00" d=" M 299.93 153.97 C 316.87 144.97 336.00 140.83 354.45 136.03 C 358.58 136.13 362.10 138.56 365.20 141.05 C 343.26 144.44 321.58 149.18 299.93 153.97 Z" />
<path fill="#000000" opacity="1.00" d=" M 455.00 291.01 C 480.33 290.99 505.66 290.97 531.00 291.02 C 531.00 299.00 531.01 306.98 531.00 314.97 C 528.32 314.99 525.66 315.01 523.01 315.04 C 523.00 324.02 522.99 333.00 522.99 341.99 C 514.65 342.01 506.33 342.03 498.01 341.99 C 498.00 333.33 497.99 324.67 497.99 316.02 C 485.99 315.99 474.00 315.99 462.01 316.00 C 460.26 316.00 456.76 316.00 455.01 316.00 C 454.98 307.66 454.98 299.34 455.00 291.01 Z" />
<path fill="#ffffff" opacity="1.00" d=" M 581.99 313.02 C 591.32 312.98 600.66 312.98 610.00 313.00 C 610.01 321.67 610.01 330.34 610.00 339.01 C 600.66 339.00 591.33 338.99 582.01 338.99 C 582.00 330.33 581.99 321.67 581.99 313.02 Z" />
<path fill="#ffffff" opacity="1.00" d=" M 462.01 316.00 C 474.00 315.99 485.99 315.99 497.99 316.02 C 497.99 324.67 498.00 333.33 498.01 341.99 C 486.00 342.02 474.00 342.03 462.00 341.99 C 461.98 333.32 461.98 324.66 462.01 316.00 Z" />
<path fill="#f6921e" opacity="1.00" d=" M 646.97 356.99 C 664.52 351.12 688.53 353.16 698.12 371.21 C 701.51 388.01 682.66 396.98 669.73 402.71 C 615.99 420.27 557.72 414.49 502.30 409.68 C 501.82 404.17 501.15 398.67 500.08 393.24 C 548.99 381.03 597.46 366.75 646.97 356.99 M 671.64 363.34 C 665.64 364.09 667.03 374.15 673.02 373.12 C 683.73 376.11 680.83 358.74 671.64 363.34 M 602.23 381.62 C 621.29 386.76 649.74 384.90 663.52 369.41 C 643.82 363.92 618.14 368.67 602.23 381.62 Z" />
<path fill="#ffffff" opacity="1.00" d=" M 671.64 363.34 C 680.83 358.74 683.73 376.11 673.02 373.12 C 667.03 374.15 665.64 364.09 671.64 363.34 Z" />
<path fill="#ffffff" opacity="1.00" d=" M 602.23 381.62 C 618.14 368.67 643.82 363.92 663.52 369.41 C 649.74 384.90 621.29 386.76 602.23 381.62 Z" />
<path fill="#00aeef" opacity="1.00" d=" M 160.97 381.99 C 179.09 395.55 198.41 422.81 223.73 412.59 C 245.84 406.71 251.47 437.00 270.39 440.46 C 280.06 440.75 287.98 432.05 298.06 435.69 C 313.76 439.99 326.87 451.68 343.34 453.78 C 361.95 455.47 376.01 437.04 395.04 442.58 C 420.70 449.04 441.63 467.79 467.43 473.83 C 491.55 473.85 515.26 467.14 537.51 458.19 C 548.28 458.25 558.63 462.76 569.18 464.72 C 528.61 489.27 480.78 498.38 434.22 503.27 C 365.99 507.55 294.09 501.08 232.99 468.02 C 199.65 449.66 170.58 419.50 160.97 381.99 Z" />
<path fill="#f05a28" opacity="1.00" d=" M 501.07 424.09 C 555.29 427.44 610.53 432.78 664.01 420.31 C 674.39 425.69 690.00 443.13 675.87 452.83 C 653.59 464.80 627.15 457.44 603.18 455.92 C 567.94 449.75 532.70 443.41 497.98 434.66 C 498.66 431.04 499.77 427.53 501.07 424.09 M 622.53 445.33 C 630.42 456.29 653.42 453.16 663.15 446.97 C 654.29 437.21 634.69 441.20 622.53 445.33 Z" />
<path fill="#ffffff" opacity="1.00" d=" M 622.53 445.33 C 634.69 441.20 654.29 437.21 663.15 446.97 C 653.42 453.16 630.42 456.29 622.53 445.33 Z" />
</svg>
